<?xml version="1.0" encoding="utf-8"?>
<!-- Generator: Adobe Illustrator 24.0.1, SVG Export Plug-In . SVG Version: 6.00 Build 0)  -->
<svg version="1.1" id="Layer_1" xmlns="http://www.w3.org/2000/svg" xmlns:xlink="http://www.w3.org/1999/xlink" x="0px" y="0px"
	 viewBox="0 0 53.86 53.86" style="enable-background:new 0 0 53.86 53.86;" xml:space="preserve">
<style type="text/css">
	.st0{fill:#FFFFFF;}
</style>
<g id="XMLID_2080_">
	<path class="st0" d="M26.93,53.77c-14.8,0-26.84-12.04-26.84-26.84S12.13,0.09,26.93,0.09s26.84,12.04,26.84,26.84
		S41.73,53.77,26.93,53.77z M26.93,2.12c-13.68,0-24.81,11.13-24.81,24.81s11.13,24.81,24.81,24.81s24.81-11.13,24.81-24.81
		S40.61,2.12,26.93,2.12z"/>
	<path id="XMLID_2081_" class="st0" d="M22.99,42.54h6.29V26.8h4.39l0.47-5.27h-4.85c0,0,0-1.97,0-3c0-1.24,0.25-1.73,1.45-1.73
		c0.97,0,3.4,0,3.4,0v-5.47c0,0-3.59,0-4.35,0c-4.68,0-6.79,2.06-6.79,6c0,3.44,0,4.2,0,4.2h-3.27v5.34h3.27V42.54z"/>
</g>
</svg>
