<?xml version="1.0" encoding="utf-8"?>
<!-- Generator: Adobe Illustrator 24.0.1, SVG Export Plug-In . SVG Version: 6.00 Build 0)  -->
<svg version="1.1" id="Layer_1" xmlns="http://www.w3.org/2000/svg" xmlns:xlink="http://www.w3.org/1999/xlink" x="0px" y="0px"
	 viewBox="0 0 53.86 53.86" style="enable-background:new 0 0 53.86 53.86;" xml:space="preserve">
<style type="text/css">
	.st0{fill:#FFFFFF;}
</style>
<g id="XMLID_2023_">
	<path class="st0" d="M26.93,53.77c-14.8,0-26.84-12.04-26.84-26.84S12.13,0.09,26.93,0.09s26.84,12.04,26.84,26.84
		S41.73,53.77,26.93,53.77z M26.93,2.12c-13.68,0-24.81,11.13-24.81,24.81s11.13,24.81,24.81,24.81s24.81-11.13,24.81-24.81
		S40.61,2.12,26.93,2.12z"/>
	<g id="XMLID_2024_">
		<path id="XMLID_2076_" class="st0" d="M26.93,15.32c3.78,0,4.23,0.01,5.72,0.08c1.38,0.06,2.13,0.29,2.63,0.49
			c0.66,0.26,1.13,0.56,1.63,1.06c0.5,0.5,0.8,0.97,1.06,1.63c0.19,0.5,0.42,1.25,0.49,2.63c0.07,1.49,0.08,1.94,0.08,5.72
			s-0.01,4.23-0.08,5.72c-0.06,1.38-0.29,2.13-0.49,2.63c-0.26,0.66-0.56,1.13-1.06,1.63c-0.5,0.5-0.97,0.8-1.63,1.06
			c-0.5,0.19-1.25,0.42-2.63,0.49c-1.49,0.07-1.94,0.08-5.72,0.08s-4.23-0.01-5.72-0.08c-1.38-0.06-2.13-0.29-2.63-0.49
			c-0.66-0.26-1.13-0.56-1.63-1.06c-0.5-0.5-0.8-0.97-1.06-1.63c-0.19-0.5-0.42-1.25-0.49-2.63c-0.07-1.49-0.08-1.94-0.08-5.72
			s0.01-4.23,0.08-5.72c0.06-1.38,0.29-2.13,0.49-2.63c0.26-0.66,0.56-1.13,1.06-1.63c0.5-0.5,0.97-0.8,1.63-1.06
			c0.5-0.19,1.25-0.42,2.63-0.49C22.7,15.33,23.15,15.32,26.93,15.32 M26.93,12.77c-3.85,0-4.33,0.02-5.84,0.09
			c-1.51,0.07-2.54,0.31-3.44,0.66c-0.93,0.36-1.72,0.85-2.51,1.63c-0.79,0.79-1.27,1.58-1.63,2.51c-0.35,0.9-0.59,1.93-0.66,3.44
			c-0.07,1.51-0.09,1.99-0.09,5.84c0,3.85,0.02,4.33,0.09,5.84c0.07,1.51,0.31,2.54,0.66,3.44c0.36,0.93,0.85,1.72,1.63,2.51
			c0.79,0.79,1.58,1.27,2.51,1.63c0.9,0.35,1.93,0.59,3.44,0.66c1.51,0.07,1.99,0.08,5.84,0.08c3.85,0,4.33-0.02,5.84-0.08
			c1.51-0.07,2.54-0.31,3.44-0.66c0.93-0.36,1.72-0.85,2.51-1.63s1.27-1.58,1.63-2.51c0.35-0.9,0.59-1.93,0.66-3.44
			c0.07-1.51,0.08-1.99,0.08-5.84c0-3.85-0.02-4.33-0.08-5.84c-0.07-1.51-0.31-2.54-0.66-3.44c-0.36-0.93-0.85-1.72-1.63-2.51
			s-1.58-1.27-2.51-1.63c-0.9-0.35-1.93-0.59-3.44-0.66C31.26,12.79,30.77,12.77,26.93,12.77"/>
		<path id="XMLID_2073_" class="st0" d="M26.93,19.66c-4.02,0-7.27,3.26-7.27,7.27c0,4.02,3.26,7.27,7.27,7.27
			c4.02,0,7.27-3.26,7.27-7.27C34.2,22.91,30.95,19.66,26.93,19.66 M26.93,31.65c-2.61,0-4.72-2.11-4.72-4.72
			c0-2.61,2.11-4.72,4.72-4.72s4.72,2.11,4.72,4.72C31.65,29.54,29.54,31.65,26.93,31.65"/>
		<path id="XMLID_2025_" class="st0" d="M36.19,19.37c0,0.94-0.76,1.7-1.7,1.7c-0.94,0-1.7-0.76-1.7-1.7c0-0.94,0.76-1.7,1.7-1.7
			C35.43,17.67,36.19,18.43,36.19,19.37"/>
	</g>
</g>
</svg>
