<?xml version="1.0" encoding="utf-8"?>
<!-- Generator: Adobe Illustrator 24.0.1, SVG Export Plug-In . SVG Version: 6.00 Build 0)  -->
<svg version="1.1" id="Layer_1" xmlns="http://www.w3.org/2000/svg" xmlns:xlink="http://www.w3.org/1999/xlink" x="0px" y="0px"
	 viewBox="0 0 368.5 226.77" style="enable-background:new 0 0 368.5 226.77;" xml:space="preserve">
<style type="text/css">
	.st0{fill:#FFFFFF;}
	.st1{fill:#86C065;}
</style>
<g>
	<g>
		<path class="st0" d="M134.3,12.16c1.58,1.73,2.37,3.74,2.37,6.04c0,3.79-0.94,6.55-2.82,8.28c-1.88,1.73-4.86,2.42-8.93,2.07
			c-9.16-0.8-16.31-1.35-21.44-1.64c-5.14-0.29-11.88-0.49-20.22-0.6c-3.77,21.16-7.22,42.43-10.38,63.82
			c-1.12,7.82-2.29,16.88-3.51,27.17c-1.22,10.29-2.04,18.6-2.44,24.93c-0.21,3.34-1.43,5.89-3.66,7.68
			c-2.24,1.78-4.94,2.67-8.09,2.67c-3.36,0-5.95-0.92-7.78-2.76c-1.83-1.84-2.75-4.25-2.75-7.24c0-2.76,0.38-7.33,1.14-13.71
			c0.76-6.38,1.65-13.08,2.67-20.1c1.12-7.01,1.98-13.11,2.59-18.28c1.12-8.74,2.39-17.42,3.81-26.05
			c1.42-8.62,2.85-16.79,4.27-24.49c0.3-1.72,0.66-3.71,1.07-5.95c0.41-2.24,0.86-4.74,1.37-7.5c-9.97,0.35-17.8,1.27-23.5,2.76
			c-5.7,1.5-9.74,3.6-12.13,6.3c-2.39,2.7-3.59,6.18-3.59,10.44c0,3.91,1.02,7.65,3.05,11.21c0.41,0.81,0.61,1.67,0.61,2.59
			c0,2.19-1.14,4.23-3.43,6.12c-2.29,1.9-4.65,2.85-7.1,2.85c-1.73,0-3.15-0.57-4.27-1.73c-2.04-1.95-3.72-4.74-5.04-8.37
			c-1.32-3.62-1.98-7.73-1.98-12.33c0-9.77,2.82-17.62,8.47-23.55c5.65-5.92,14.24-10.26,25.79-13.02C50,6.99,64.83,5.61,82.94,5.61
			c11.19,0,20.12,0.23,26.78,0.69c6.66,0.46,12.49,1.21,17.47,2.24C130.35,9.23,132.72,10.44,134.3,12.16z"/>
		<path class="st0" d="M92.33,145.55c-3-4.68-4.5-10.89-4.5-18.62c0-4.58,0.58-10.45,1.75-17.63c1.17-7.17,2.67-13.86,4.5-20.07
			c0.92-3.25,2.14-5.49,3.66-6.72c1.53-1.22,3.97-1.83,7.33-1.83c5.19,0,7.78,1.73,7.78,5.19c0,2.54-0.97,8.45-2.9,17.7
			c-2.44,11.19-3.66,18.77-3.66,22.74c0,3.05,0.41,5.39,1.22,7.02c0.81,1.63,2.19,2.44,4.12,2.44c1.83,0,4.12-1.27,6.87-3.82
			c2.75-2.54,6.41-6.56,10.99-12.06c1.22-1.42,2.59-2.14,4.12-2.14c1.32,0,2.37,0.61,3.13,1.83c0.76,1.22,1.14,2.9,1.14,5.04
			c0,4.07-0.97,7.23-2.9,9.46c-10.07,12.31-19.48,18.47-28.23,18.47C100.14,152.57,95.33,150.23,92.33,145.55z M98.36,67.64
			c-2.14-1.98-3.21-4.75-3.21-8.32c0-3.56,1.4-6.54,4.2-8.93c2.8-2.39,6.28-3.59,10.45-3.59c3.76,0,6.81,0.92,9.16,2.75
			c2.34,1.83,3.51,4.43,3.51,7.78c0,4.07-1.32,7.3-3.97,9.69c-2.65,2.39-6.16,3.59-10.53,3.59C103.7,70.62,100.49,69.63,98.36,67.64
			z"/>
		<path class="st0" d="M210.14,119.61c0.76,1.22,1.14,2.9,1.14,5.04c0,4.07-0.97,7.23-2.9,9.46c-4.38,5.39-9.08,9.82-14.12,13.28
			c-5.04,3.46-10.76,5.19-17.17,5.19c-5.39,0-9.77-1.93-13.12-5.8c-5.8,3.77-11.85,5.7-18.16,5.8c-1.32,19.63-4.33,36.04-9,49.22
			c-4.68,13.17-11.55,19.76-20.6,19.76c-5.49,0-9.56-1.98-12.21-5.95c-2.64-3.97-3.97-9.46-3.97-16.48c0-9.97,2.29-21.59,6.87-34.87
			c4.58-13.28,11.65-27.9,21.21-43.88c0-14.85-0.1-25.18-0.3-30.98c-0.1-2.95,1.07-5.29,3.51-7.02c2.44-1.73,5.49-2.59,9.16-2.59
			c2.14,0,3.69,0.43,4.65,1.3c0.97,0.87,1.5,2.57,1.6,5.11c0,2.54,0.05,4.43,0.15,5.65c3.26-4.07,6.46-6.99,9.61-8.78
			c3.15-1.78,6.51-2.67,10.07-2.67c5.7,0,10.35,2.29,13.96,6.87c3.61,4.58,5.42,10.58,5.42,18.01c0,5.39-0.87,10.63-2.59,15.72
			c-1.73,5.09-4.12,9.72-7.17,13.89c2.14,0.61,3.92,0.92,5.34,0.92c3.36,0,6.56-1.22,9.61-3.66c3.05-2.44,6.97-6.51,11.75-12.21
			c1.22-1.42,2.59-2.14,4.12-2.14C208.34,117.78,209.38,118.39,210.14,119.61z M124.3,188.66c1.83-11.96,3-26.84,3.51-44.64
			c-4.38,10.17-7.84,19.89-10.38,29.15c-2.54,9.26-3.82,17.04-3.82,23.35c0,3.25,0.38,5.75,1.14,7.48c0.76,1.73,1.66,2.59,2.67,2.59
			C120.18,206.6,122.47,200.62,124.3,188.66z M156.73,131.89c3.1-3.21,5.57-7.17,7.4-11.9c1.83-4.73,2.75-9.69,2.75-14.88
			c0-3.05-0.61-5.37-1.83-6.94c-1.22-1.58-2.85-2.36-4.88-2.36c-3.66,0-8.09,3.87-13.28,11.6c-0.1,4.48-0.15,11.04-0.15,19.69
			c0,4.68-0.05,8.29-0.15,10.84C150.24,137.11,153.63,135.1,156.73,131.89z"/>
		<g>
			<path class="st0" d="M233.27,126.93c0-4.58,0.66-10.45,1.97-17.63c0.2-1.1,0.43-2.17,0.65-3.24c-0.74,2.05-1.48,4.01-2.24,5.84
				c-2.59,6.26-5.06,10.94-7.4,14.04c-2.34,3.1-4.27,4.65-5.8,4.65c-1.12,0-1.93-0.43-2.44-1.3c-0.51-0.86-0.76-2.37-0.76-4.5
				c0-3.56,1.02-10.68,3.05-21.37c0.61-3.05,1.42-6.46,2.44-10.22c1.12-4.68,1.68-7.43,1.68-8.24c0-1.42-0.43-2.49-1.3-3.21
				c-0.86-0.71-2.42-1.07-4.65-1.07c-3.97,0-6.87,0.66-8.7,1.98c-1.83,1.32-3.26,3.51-4.27,6.56c-2.34,7.12-4.02,13.86-5.03,20.22
				c-1.02,6.36-1.53,13.35-1.53,20.98c0,6.92,1.45,12.34,4.35,16.25c2.9,3.92,6.74,5.87,11.52,5.87c3.87,0,7.5-1.88,10.91-5.65
				c3.41-3.76,5.98-9.21,7.71-16.33c0,0,0,0,0,0l0.01-0.03C233.33,129.39,233.27,128.19,233.27,126.93z"/>
		</g>
		<path class="st0" d="M285.42,116.46c-0.39,0.46-0.77,0.92-1.15,1.36c-4.11,4.78-7.68,8.31-10.74,10.91
			c-5.32,4.48-9.18,6.18-11.71,6.75c-0.87,0.2-1.58,0.26-2.15,0.26c-0.6-0.03-1.14-0.13-1.63-0.28c-1.15-0.36-2.06-1.05-2.66-2.12
			c-0.92-1.63-1.37-3.97-1.37-7.02c0-0.96,0.08-2.14,0.24-3.52c0.01-0.1,0.03-0.21,0.04-0.32c0.6-5.08,1.36-10.66,2.32-16.77
			c0.51-3.25,0.97-6.43,1.37-9.54c0.41-3.1,0.61-5.93,0.61-8.47c0-2.34-0.48-4.09-1.45-5.26c-0.96-1.16-2.54-1.74-4.74-1.75
			c-0.02,0-0.04,0-0.07,0c-0.07,0-0.13,0.01-0.2,0.01c-3.51,0.05-6.09,0.66-7.73,1.82c-1.71,1.22-3.09,3.46-4.11,6.72
			c-1.74,5.25-3.2,10.88-4.41,16.82c-0.22,1.08-0.45,2.14-0.65,3.24c-1.31,7.17-1.97,13.05-1.97,17.63c0,7.73,1.68,13.94,5.06,18.62
			c2.3,3.19,5.56,5.26,9.74,6.28c1.31,0.32,2.71,0.53,4.2,0.64l0.01,0.01c0.04,0,0.09,0,0.13,0.01c0.57,0.05,1.13,0.06,1.69,0.07
			c0.14,0,0.28,0.01,0.43,0.01c0.19,0,0.38-0.02,0.57-0.02c16.17-0.63,27.25-20.57,32.71-33.4c2.61-6.13,3.95-10.64,3.95-10.64
			C289.51,111.48,287.41,114.1,285.42,116.46z"/>
	</g>
	<g>
		<path class="st1" d="M305.7,94.53c0.91-7.43,3.05-16.4,7.95-23.41c0,0-3.3,10-4.62,21.27c4-2.24,8.85-3.9,14.74-4.56
			c0.7-0.08,1.4-0.14,2.11-0.19c3.74-12.63-8.51-31.97-8.51-31.97s-13.18,9.77-18.58,22.66c-3.81,9.08-1.65,16.34,1.37,21.28
			C301.73,97.8,303.57,96.08,305.7,94.53z"/>
	</g>
	<g>
		<path class="st1" d="M365.18,96.98c0,0-21.24-9.61-40.98-7.42c-21.56,2.39-27.81,19.59-29.48,26.64
			c8.48-4.82,29.27-15.14,48.7-13.15c0,0-28.8,5.51-46.67,17.96c5.74,3.73,20.15,11.73,34.4,8.69
			C349.51,125.77,365.18,96.98,365.18,96.98z"/>
	</g>
</g>
</svg>
