<?xml version="1.0" encoding="utf-8"?>
<!-- Generator: Adobe Illustrator 24.0.1, SVG Export Plug-In . SVG Version: 6.00 Build 0)  -->
<svg version="1.1" id="Layer_1" xmlns="http://www.w3.org/2000/svg" xmlns:xlink="http://www.w3.org/1999/xlink" x="0px" y="0px"
	 viewBox="0 0 53.86 53.86" style="enable-background:new 0 0 53.86 53.86;" xml:space="preserve">
<style type="text/css">
	.st0{fill:#FFFFFF;}
</style>
<g id="XMLID_2111_">
	<path class="st0" d="M26.93,53.77c-14.8,0-26.84-12.04-26.84-26.84S12.13,0.09,26.93,0.09s26.84,12.04,26.84,26.84
		S41.73,53.77,26.93,53.77z M26.93,2.12c-13.68,0-24.81,11.13-24.81,24.81s11.13,24.81,24.81,24.81s24.81-11.13,24.81-24.81
		S40.61,2.12,26.93,2.12z"/>
	<path id="XMLID_2112_" class="st0" d="M13.17,35.57c2.5,1.6,5.47,2.54,8.65,2.54c10.48,0,16.4-8.85,16.05-16.8
		c1.1-0.8,2.06-1.79,2.82-2.92c-1.01,0.45-2.1,0.75-3.24,0.89c1.17-0.7,2.06-1.8,2.48-3.12c-1.09,0.65-2.3,1.12-3.58,1.37
		c-1.03-1.1-2.5-1.78-4.12-1.78c-3.64,0-6.32,3.4-5.5,6.93c-4.69-0.24-8.85-2.48-11.64-5.9c-1.48,2.54-0.77,5.86,1.75,7.54
		c-0.93-0.03-1.8-0.28-2.56-0.71c-0.06,2.62,1.81,5.06,4.53,5.61c-0.79,0.22-1.67,0.27-2.55,0.1c0.72,2.24,2.8,3.88,5.27,3.92
		C19.15,35.1,16.16,35.93,13.17,35.57z"/>
</g>
</svg>
